<svg width="130" height="142" viewBox="0 0 130 142" fill="none" xmlns="http://www.w3.org/2000/svg">
<g clip-path="url(#clip0_53_95)">
<path d="M78.8556 108.937C78.8556 108.937 90.5011 97.8002 83.5462 75.8449C76.5913 53.8896 40.5231 15.071 40.5231 15.071C40.5231 15.071 53.8738 44.344 54.433 47.3671C55.4042 52.6174 94.0594 64.2314 78.8556 108.937Z" fill="#E50013"/>
<g filter="url(#filter0_i_53_95)">
<path d="M54.433 47.3671C53.8739 44.3439 40.5231 15.071 40.5231 15.071C40.5231 15.071 22.4082 0.434319 12.3802 8.38881C2.3522 16.3433 26.4517 30.0257 26.4517 30.0257C26.4517 30.0257 27.5822 53.2537 21.4379 63.4358C15.2936 73.6178 17.6559 114.664 65.3193 115.937C65.3193 115.937 74.1654 116.565 78.8556 108.937C94.0595 64.2314 55.4043 52.6173 54.433 47.3671Z" fill="url(#paint0_linear_53_95)"/>
</g>
<path d="M104.573 30.9805C110.486 22.9822 117.712 20.7075 120.821 20.0773C113.932 21.3415 86.0767 28.8669 80.4731 68.4463C81.7671 71.0544 82.817 73.542 83.5462 75.8416C90.5012 97.7969 78.8556 108.934 78.8556 108.934C78.8556 108.934 107.161 101.297 107.969 82.0467C108.777 62.7961 96.8089 41.4805 104.573 30.9805Z" fill="url(#paint1_linear_53_95)"/>
<path d="M56.799 33.9537C65.3032 44.4254 75.043 57.503 80.4731 68.4477C84.0031 43.514 96.3638 31.3017 106.751 25.3614L106.756 25.3586C108.79 24.1955 110.906 23.1828 113.088 22.3284C115.213 21.4912 117.4 20.82 119.629 20.3208H119.631H119.639C120.081 20.2238 120.477 20.1451 120.82 20.082C120.821 20.0773 77.604 0.653358 56.799 33.9537Z" fill="url(#paint2_linear_53_95)"/>
<path d="M56.799 33.9537C63.036 23.9704 71.2878 18.7272 79.7859 16.2773C78.7496 13.9433 75.033 8.42224 63.143 8.54801C48.0767 8.70722 47.6038 23.009 47.6038 23.009C50.2416 26.0496 53.423 29.7963 56.799 33.9537Z" fill="#C9172C"/>
<path d="M41.2702 15.8841C42.3795 17.0979 44.6518 19.6119 47.6029 23.0105C47.6029 23.0105 47.959 12.3084 57.8066 9.31536C50.4334 0.377806 42.5359 -1.7579 36.7854 1.8484C31.4805 5.1749 38.5358 13.1473 39.7709 14.446C39.875 14.5552 39.9376 14.6169 39.9484 14.6254L40.5231 15.071C40.5231 15.071 40.7859 15.3537 41.2702 15.8836V15.8841Z" fill="#9B0215"/>
<path d="M106.574 15.7894C108.096 13.9368 113.789 6.45378 106.801 6.0209C98.8217 5.52677 78.71 14.446 78.71 14.446C79.1331 15.0161 79.4935 15.6301 79.7849 16.2774C89.218 13.558 98.9535 14.2806 106.574 15.7894Z" fill="#E50013"/>
<path d="M85.2354 0.180893C68.7738 -0.566651 60.8481 8.69075 60.8481 8.69075C61.6095 8.60159 62.3751 8.55316 63.1416 8.54566C72.5097 8.44674 76.8018 11.8529 78.7095 14.4441C78.7095 14.4441 86.4492 11.012 94.2313 8.52353C94.6647 4.47397 93.025 0.535117 85.2354 0.180893Z" fill="#9B0215"/>
<path d="M79.2164 15.1996C79.2173 15.2008 79.2181 15.2021 79.2187 15.2034L79.2164 15.1996Z" fill="#9B0215"/>
<path d="M65.3192 115.937C37.5498 117.209 14.8065 93.3456 9.93827 90.9593C5.07005 88.573 0.57489 89.3681 0.57489 89.3681C11.7353 84.9134 23.3333 93.2886 23.3333 93.2886C21.8307 74.7766 25.3216 60.9854 25.3216 60.9854C27.8181 61.3302 30.1733 81.5723 37.1283 88.0953C38.784 89.6498 54.2742 103.21 56.8009 108.301C59.3275 113.392 65.3211 113.55 65.3211 113.55C65.3211 113.55 75.9464 112.596 92.6053 99.5501C109.264 86.5041 129.644 100.822 129.644 100.822C129.644 100.822 112.074 97.9486 107.485 100.027C89.91 107.981 91.1319 120.242 65.8284 115.985" fill="url(#paint3_linear_53_95)"/>
<path d="M65.3193 115.937C37.5499 117.209 28.2015 95.6749 23.3333 93.2886C21.8307 74.7766 25.3217 60.9855 25.3217 60.9855C27.8182 61.3303 30.1734 81.5724 37.1283 88.0954C38.784 89.6498 54.2743 103.21 56.8009 108.301C59.3276 113.392 65.3212 113.551 65.3212 113.551C65.8285 115.985 65.8285 115.985 65.8285 115.985C65.8285 115.985 69.9101 111.472 65.3212 113.551C47.7456 121.505 75.8387 112.051 65.8285 115.985" fill="url(#paint4_linear_53_95)"/>
<path d="M65.8266 115.986L65.3193 115.939C63.6659 116.013 62.0099 116.001 60.3578 115.903L59.4468 115.95L61.5495 141.999H69.9595L71.6444 116.716C69.8724 116.58 67.9444 116.342 65.8266 115.986Z" fill="url(#paint5_linear_53_95)"/>
</g>
<defs>
<filter id="filter0_i_53_95" x="9.93835" y="6.02094" width="72.4556" height="113.081" filterUnits="userSpaceOnUse" color-interpolation-filters="sRGB">
<feFlood flood-opacity="0" result="BackgroundImageFix"/>
<feBlend mode="normal" in="SourceGraphic" in2="BackgroundImageFix" result="shape"/>
<feColorMatrix in="SourceAlpha" type="matrix" values="0 0 0 0 0 0 0 0 0 0 0 0 0 0 0 0 0 0 127 0" result="hardAlpha"/>
<feOffset dy="3.15249"/>
<feGaussianBlur stdDeviation="1.57624"/>
<feComposite in2="hardAlpha" operator="arithmetic" k2="-1" k3="1"/>
<feColorMatrix type="matrix" values="0 0 0 0 0 0 0 0 0 0 0 0 0 0 0 0 0 0 0.25 0"/>
<feBlend mode="normal" in2="shape" result="effect1_innerShadow_53_95"/>
</filter>
<linearGradient id="paint0_linear_53_95" x1="46.2841" y1="74.2216" x2="89.2368" y2="71.4632" gradientUnits="userSpaceOnUse">
<stop stop-color="#9E0713"/>
<stop offset="1" stop-color="#F92032"/>
</linearGradient>
<linearGradient id="paint1_linear_53_95" x1="99.8382" y1="20.0773" x2="99.8382" y2="108.934" gradientUnits="userSpaceOnUse">
<stop stop-color="#FF2638"/>
<stop offset="1" stop-color="#DC0618"/>
</linearGradient>
<linearGradient id="paint2_linear_53_95" x1="80.5674" y1="14.3243" x2="102.241" y2="52.9423" gradientUnits="userSpaceOnUse">
<stop stop-color="#FF2638"/>
<stop offset="1" stop-color="#9B0215"/>
</linearGradient>
<linearGradient id="paint3_linear_53_95" x1="57.3178" y1="113.628" x2="95.1963" y2="126.919" gradientUnits="userSpaceOnUse">
<stop stop-color="#4F7725"/>
<stop offset="1" stop-color="#80C927"/>
</linearGradient>
<linearGradient id="paint4_linear_53_95" x1="45.496" y1="105.746" x2="53.568" y2="75.2742" gradientUnits="userSpaceOnUse">
<stop stop-color="#4F7725"/>
<stop offset="1" stop-color="#80C927"/>
</linearGradient>
<linearGradient id="paint5_linear_53_95" x1="59.6823" y1="128.602" x2="69.5338" y2="130.572" gradientUnits="userSpaceOnUse">
<stop stop-color="#4F7725"/>
<stop offset="1" stop-color="#80C927"/>
</linearGradient>
<clipPath id="clip0_53_95">
<rect width="129.069" height="141.862" fill="white" transform="translate(0.572998 0.138062)"/>
</clipPath>
</defs>
</svg>
