<svg width="482" height="130" viewBox="0 0 482 130" fill="none" xmlns="http://www.w3.org/2000/svg">
<g clip-path="url(#clip0_5_2)">
<path d="M367.3 83.5001V69.4001C367.3 54.5001 328.4 67.8001 328.4 43.0001C328.4 32.2001 337 25.1001 352.1 25.1001C367.6 25.1001 375.9 33.3001 375.9 44.4001V44.9001H366.6C366.6 37.0001 361.2 33.4001 351.7 33.4001C342.1 33.4001 337.2 37.3001 337.2 42.7001C337.2 59.4001 376.1 44.6001 376.1 69.0001C376.2 75.4001 373 80.4001 367.3 83.5001ZM251.5 86.1001H244.9C232.1 86.1001 223.4 79.2001 223.4 65.7001V34.2001H213.3V26.0001H223.5V9.6001H232.7V65.2001C232.7 74.4001 236.8 77.5001 245.1 77.5001H251.5V86.1001ZM35.5 72.4001V81.5001C28.7 85.1001 24.3 86.8001 17.8 86.8001C7.4 86.8001 0.400002 79.9001 0.400002 70.0001C0.400002 58.0001 9.7 52.0001 21.8 52.0001H35.5V60.1001H22.5C12.3 60.1001 9.8 64.9001 9.8 69.7001C9.8 74.9001 13 78.0001 18.6 78.0001C23.3 78.0001 27.3 76.6001 31.6 74.4001L35.5 72.4001ZM174.6 59.8001H139.6V51.8001H165.7V49.9001C165.7 39.5001 159.6 33.5001 149.2 33.5001C145.4 33.5001 142.1 34.3001 139.6 35.8001V26.7001C142.5 25.7001 145.8 25.1001 149.2 25.1001C164 25.1001 174.5 34.8001 174.5 49.9001V59.8001H174.6Z" fill="black"/>
<path d="M73 86.1001H62L79.8 61.4001L85.1 68.6001L73 86.1001ZM201.8 5.3001V7.5001C201.8 10.6001 199.5 12.7001 196.3 12.7001C193 12.7001 190.7 10.6001 190.7 7.5001V5.3001C190.7 2.2001 193 0.100098 196.3 0.100098C199.5 0.200098 201.8 2.2001 201.8 5.3001ZM360.2 77.6001V86.1001C357.6 86.6001 354.8 86.9001 351.7 86.9001C336.2 86.9001 326.9 78.8001 326.9 67.6001V67.1001H336.4C336.4 75.0001 342.1 78.6001 352 78.6001C355.2 78.6001 357.9 78.3001 360.2 77.6001ZM251 34.2001H239.8V26.0001H251V34.2001ZM201 86.1001H191.6V26.0001H201V86.1001ZM174.4 67.4001V67.8001C174.4 78.9001 164.7 87.0001 149.4 87.0001C134.6 87.0001 123.6 78.6001 123.6 64.4001V49.8001C123.6 41.4001 126.9 34.7001 132.6 30.4001V63.5001C132.6 73.8001 139.8 78.6001 149.4 78.6001C159.3 78.6001 165.6 75.2001 165.6 67.3001H174.4V67.4001ZM117.3 86.1001H106.3L62.6 26.0001H73.7L89.9 48.9001L105.9 26.0001H116.7L95.5 55.6001L117.3 86.1001ZM51.7 86.1001H42.6V47.8001C42.6 37.9001 37 33.1001 27.2 33.1001C16.9 33.1001 11 37.4001 11 46.3001H1.9V45.7001C1.9 32.5001 12.5 24.8001 27.1 24.8001C42.6 24.8001 51.6 33.3001 51.6 47.2001V86.1001H51.7ZM304.1 81.9001V50.7001C304.1 39.7001 297.1 33.5001 286.9 33.5001C276.7 33.5001 269.7 39.7001 269.7 50.7001V61.6001C269.7 72.5001 276.7 78.8001 286.9 78.8001C290.8 78.8001 294.2 77.9001 297 76.2001V85.7001C293.9 86.6001 290.5 87.3001 286.9 87.3001C271.7 87.3001 260.6 77.5001 260.6 62.5001V49.8001C260.6 34.8001 271.7 25.0001 286.9 25.0001C302 25.0001 313.2 34.7001 313.2 49.8001V62.5001C313.2 70.9001 309.7 77.7001 304.1 81.9001Z" fill="black"/>
<path d="M407.5 81.5001L399.6 71.3001C397.4 72.6001 396.2 74.3001 396.2 76.3001C396.2 77.4001 396.5 78.6001 397.1 79.7001C397.7 80.8001 398.5 81.7001 399.5 82.4001C400.5 83.1001 401.6 83.5001 402.7 83.5001C403.6 83.5001 404.5 83.3001 405.2 83.0001C406 82.5001 406.7 82.0001 407.5 81.5001ZM406.6 61.5001C406.6 60.9001 406.5 60.3001 406.2 59.8001C406 59.3001 405.6 58.8001 405.2 58.5001C404.7 58.2001 404.2 58.0001 403.5 58.0001C402.6 58.0001 401.8 58.3001 401.3 58.9001C400.8 59.5001 400.5 60.2001 400.5 60.9001C400.5 62.6001 401.3 64.6001 403 66.9001C404.1 66.1001 405 65.3001 405.6 64.5001C406.2 63.8001 406.6 62.8001 406.6 61.5001ZM422.4 79.8001C422.3 81.0001 422.1 82.1001 421.6 83.2001C421.1 84.3001 420.4 85.2001 419.5 86.0001C418.6 86.7001 417.4 87.1001 416 87.1001C415.3 87.1001 414.6 87.0001 413.9 86.8001C413.2 86.6001 412.5 86.2001 411.7 85.6001C410.9 85.0001 409.9 84.1001 408.8 83.0001C407.3 84.4001 405.8 85.4001 404.2 86.1001C402.7 86.8001 401.2 87.1001 399.8 87.1001C398.2 87.1001 396.7 86.7001 395.5 86.0001C394.2 85.2001 393.2 84.2001 392.5 83.0001C391.8 81.8001 391.5 80.4001 391.5 79.0001C391.5 78.2001 391.6 77.3001 391.9 76.3001C392.2 75.3001 392.8 74.2001 393.9 72.9001C394.9 71.6001 396.4 70.5001 398.4 69.4001C397.6 68.1001 397.1 66.9001 396.7 65.9001C396.3 64.9001 396.1 63.8001 396.1 62.6001C396.1 61.5001 396.3 60.4001 396.7 59.5001C397.1 58.6001 397.7 57.9001 398.3 57.3001C399 56.7001 399.8 56.3001 400.6 56.0001C401.5 55.7001 402.3 55.6001 403.2 55.6001C404.5 55.6001 405.6 55.9001 406.6 56.5001C407.6 57.1001 408.3 57.8001 408.8 58.7001C409.3 59.6001 409.6 60.5001 409.6 61.5001C409.6 62.8001 409.1 64.0001 408.2 65.3001C407.3 66.5001 405.9 67.6001 404.2 68.5001L411.1 77.5001C412 76.5001 412.7 75.4001 413.3 74.4001C413.9 73.3001 414.3 72.3001 414.3 71.3001C414.3 71.0001 414.2 70.6001 413.9 70.1001C413.6 69.6001 413 69.4001 412 69.4001V67.3001H421.2V69.4001C420.4 69.6001 419.7 69.8001 419.2 70.2001C418.7 70.5001 418.3 70.9001 417.9 71.5001C417.5 72.0001 416.8 73.0001 415.9 74.4001L414.9 76.0001C414.1 77.3001 413.3 78.4001 412.5 79.3001C413.2 80.3001 414 81.3001 415 82.1001C415.9 82.9001 416.8 83.4001 417.7 83.4001C418.1 83.4001 418.5 83.3001 418.9 83.1001C419.3 82.9001 419.6 82.5001 419.9 81.9001C420.2 81.3001 420.4 80.6001 420.5 79.8001H422.4Z" fill="black"/>
<path d="M454.5 86.3H452.4C452.1 85 451.6 83.9 450.9 82.9C449.8 84.1 448.5 85.1 447 85.9C445.5 86.7 443.6 87.2 441.1 87.2C438.4 87.2 435.9 86.5 433.5 85.2C431.2 83.9 429.3 82 427.9 79.7C426.5 77.3 425.8 74.7 425.8 71.7C425.8 69.6 426.2 67.6 426.9 65.7C427.7 63.8 428.7 62.1 430.1 60.6C431.5 59.2 433.1 58 435.1 57.2C437 56.4 439.1 56 441.4 56C445.2 56 448.3 57.2 450.8 59.7C451.1 59.1 451.4 58.1 451.8 56.9H453.8L454.2 68H452.1C451.7 66.1 451 64.4 450 63C449 61.5 447.8 60.4 446.4 59.6C445 58.8 443.6 58.4 442.1 58.4C440.4 58.4 438.9 58.9 437.5 59.8C436.1 60.7 435.1 62.1 434.3 64C433.5 65.9 433.2 68.3 433.2 71.1C433.2 73.9 433.5 76.2 434.2 78C434.8 79.8 435.6 81.2 436.6 82.1C437.6 83 438.5 83.7 439.5 84C440.5 84.3 441.3 84.5 442.2 84.5C444 84.5 445.7 84 447.1 83C448.6 82 449.8 80.8 450.7 79.3C451.6 77.8 452.3 76.3 452.6 74.8H454.7V86.3H454.5Z" fill="black"/>
<path d="M475.1 77.3002C475.1 74.8002 474.8 72.9002 474.1 71.6002C473.4 70.3002 472.1 69.7002 470.2 69.7002C469 69.7002 468 70.0002 467.3 70.5002C466.6 71.1002 466.1 71.9002 465.8 73.1002C465.6 74.3002 465.4 75.8002 465.4 77.6002C465.4 79.9002 465.7 81.7002 466.3 83.2002C466.9 84.6002 468.2 85.3002 470.3 85.3002C471.6 85.3002 472.7 84.9002 473.4 84.1002C474.1 83.3002 474.6 82.4002 474.8 81.2002C475 80.1002 475.1 78.7002 475.1 77.3002ZM481.2 77.4002C481.2 79.4002 480.7 81.2002 479.7 82.7002C478.7 84.2002 477.4 85.4002 475.7 86.2002C474 87.0002 472.2 87.4002 470.2 87.4002C468.3 87.4002 466.6 87.0002 464.9 86.3002C463.2 85.6002 461.9 84.5002 460.8 83.0002C459.7 81.5002 459.2 79.7002 459.2 77.5002C459.2 74.3002 460.3 71.8002 462.5 70.2002C464.7 68.5002 467.3 67.7002 470.4 67.7002C472.7 67.7002 474.6 68.1002 476.2 69.0002C477.8 69.9002 479.1 71.1002 479.9 72.6002C480.8 74.0002 481.2 75.6002 481.2 77.4002Z" fill="black"/>
<path d="M150.3 114.7C150.3 117.9 149.7 118.8 147.1 118.8H142.2V110.5H147.2C149.5 110.6 150.3 111.2 150.3 114.7ZM151.7 129.3H154.6L149.5 120.9C152.2 120.3 152.9 118.2 152.9 114.7C152.9 110.9 152.1 108.3 147.5 108.3H139.7V129.3H142.3V121.1H146.8L151.7 129.3Z" fill="black"/>
<path d="M172.9 118C172.9 111.7 171.9 107.9 165.2 107.9C158.5 107.9 157.5 111.7 157.5 118V119.5C157.5 125.8 158.6 129.6 165.2 129.6C171.8 129.6 172.9 125.8 172.9 119.5V118ZM170.3 119.4C170.3 124.6 170.1 127.3 165.3 127.3C160.4 127.3 160.2 124.6 160.2 119.4V118.1C160.2 112.9 160.4 110.2 165.3 110.2C170.1 110.2 170.3 112.9 170.3 118.1V119.4Z" fill="black"/>
<path d="M181.7 129.3H184.2V110.6H190.3V108.3H175.7V110.6H181.7V129.3Z" fill="black"/>
<path d="M208.1 108.3H205.5V122.6C205.5 125.7 204.1 127.4 200.7 127.4C197.3 127.4 195.9 125.7 195.9 122.6V108.3H193.3V122.3C193.3 126.3 195 129.6 200.7 129.6C206.4 129.6 208.1 126.3 208.1 122.3V108.3Z" fill="black"/>
<path d="M215.3 108.3H212.8V129.2H224.1V127H215.3V108.3Z" fill="black"/>
<path d="M237.9 121.3H231L234.4 110.7L237.9 121.3ZM243.2 129.3L235.9 108.3H232.9L225.7 129.3H228.3L230.2 123.4H238.5L240.4 129.3H243.2Z" fill="black"/>
<path d="M253.7 110.2C255 110.2 257.2 110.5 258.5 110.9L258.7 108.6C257.3 108.3 255.3 108 253.5 108C246.8 108 245.8 111.6 245.8 118.1V119.6C245.8 125.8 246.4 129.7 253.7 129.7C255.5 129.7 257.5 129.4 258.7 129.1L258.5 126.8C257.1 127.2 255.1 127.4 253.8 127.4C248.9 127.4 248.5 125.6 248.5 119.4V118.3C248.5 112.2 249 110.2 253.7 110.2Z" fill="black"/>
<path d="M265.2 108.3H262.6V129.3H265.2V108.3Z" fill="black"/>
<path d="M275.6 106.9L281.1 104.4L281 102L275.2 105.1L275.6 106.9ZM285.2 118C285.2 111.7 284.1 107.9 277.5 107.9C270.9 107.9 269.8 111.7 269.8 118V119.5C269.8 125.8 270.8 129.6 277.5 129.6C284.1 129.6 285.2 125.8 285.2 119.5V118ZM282.6 119.4C282.6 124.6 282.4 127.3 277.6 127.3C272.8 127.3 272.5 124.6 272.5 119.4V118.1C272.5 112.9 272.7 110.2 277.6 110.2C282.4 110.2 282.6 112.9 282.6 118.1V119.4Z" fill="black"/>
<path d="M301.6 129.3H304.6V108.3H302.1V125.3L292.7 108.3H289.7V129.3H292.2V112.4L301.6 129.3Z" fill="black"/>
<path d="M316.9 129.3H328.8V127H319.4V119.6H327.8V117.4H319.4V110.6H328.8V108.3H316.9V129.3Z" fill="black"/>
<path d="M343.1 108.3H340.5V129.3H343.1V108.3Z" fill="black"/>
<path d="M366.5 129.3L365.6 108.3H362.8L357.3 122.9L351.7 108.3H348.9L348.1 129.3H350.6L351.2 113.2L355.9 126H358.5L363.3 113.2L363.9 129.3H366.5Z" fill="black"/>
<path d="M382 114.9C382 117.9 381.7 119.3 378.5 119.3H373.9V110.6H378.5C381.2 110.6 382 111.3 382 114.9ZM371.3 129.3H373.9V121.6H378.9C383.8 121.6 384.6 119.4 384.6 114.9C384.6 110.6 383.8 108.3 378.8 108.3H371.3V129.3Z" fill="black"/>
<path d="M399 114.7C399 117.9 398.3 118.8 395.8 118.8H390.9V110.5H395.9C398.2 110.6 399 111.2 399 114.7ZM400.4 129.3H403.3L398.2 120.9C400.9 120.3 401.6 118.2 401.6 114.7C401.6 110.9 400.8 108.3 396.2 108.3H388.4V129.3H391V121.1H395.5L400.4 129.3Z" fill="black"/>
<path d="M406.7 129.3H418.7V127H409.3V119.6H417.7V117.4H409.3V110.6H418.6V108.3H406.7V129.3Z" fill="black"/>
<path d="M435.1 123.6C435.1 119.7 433.7 118.7 429.7 117.6C426.2 116.6 424.9 116.4 424.9 113.5C424.9 111.2 425.8 110.1 429.1 110.1C430.9 110.1 432.8 110.5 434.3 110.9L434.5 108.5C433 108.2 430.9 107.9 429 107.9C423.5 107.9 422.2 110.3 422.2 114.1C422.2 117.7 424.1 118.6 427.5 119.5C431.1 120.5 432.4 120.8 432.4 123.9C432.4 126.4 431.2 127.3 428.1 127.3C426.2 127.3 424.1 126.9 422.5 126.3L422.2 128.7C423.9 129.2 426.1 129.5 428 129.5C433.6 129.6 435.1 127.3 435.1 123.6Z" fill="black"/>
<path d="M441.9 108.3H439.3V129.3H441.9V108.3Z" fill="black"/>
<path d="M452.3 106.9L457.8 104.4L457.7 102L451.9 105.1L452.3 106.9ZM461.9 118C461.9 111.7 460.9 107.9 454.2 107.9C447.5 107.9 446.5 111.7 446.5 118V119.5C446.5 125.8 447.5 129.6 454.2 129.6C460.8 129.6 461.9 125.8 461.9 119.5V118ZM459.3 119.4C459.3 124.6 459.1 127.3 454.2 127.3C449.3 127.3 449.1 124.6 449.1 119.4V118.1C449.1 112.9 449.3 110.2 454.2 110.2C459 110.2 459.3 112.9 459.3 118.1V119.4Z" fill="black"/>
<path d="M478.3 129.3H481.2V108.3H478.7V125.3L469.3 108.3H466.4V129.3H468.9V112.4L478.3 129.3Z" fill="black"/>
</g>
<defs>
<clipPath id="clip0_5_2">
<rect width="482" height="130" fill="white"/>
</clipPath>
</defs>
</svg>
