<svg width="99" height="96" viewBox="0 0 99 96" fill="none" xmlns="http://www.w3.org/2000/svg">
<path d="M7.37392 94.0055V95.2939C6.51356 95.7631 5.52066 95.9978 4.39524 95.9978C3.48056 95.9978 2.70493 95.8153 2.06835 95.4459C1.43177 95.0788 0.927714 94.5725 0.556194 93.9273C0.184673 93.282 0 92.5846 0 91.835C0 90.6422 0.425835 89.6407 1.27533 88.8281C2.12483 88.0155 3.17422 87.6093 4.42131 87.6093C5.28167 87.6093 6.23763 87.8352 7.28701 88.2828V89.5429C6.32888 88.9954 5.39248 88.7216 4.4778 88.7216C3.53922 88.7216 2.76142 89.0171 2.14222 89.6102C1.52302 90.2012 1.21233 90.9442 1.21233 91.835C1.21233 92.7345 1.5165 93.471 2.12701 94.0511C2.73752 94.629 3.51749 94.918 4.46693 94.918C5.45766 94.9202 6.42882 94.616 7.37392 94.0055Z" fill="black"/>
<path d="M11.7301 87.6701H12.5535L16.2252 95.9044H15.0259L13.9353 93.4776H10.4395L9.4162 95.9044H8.21039L11.7301 87.6701ZM13.453 92.4347L12.132 89.469L10.9066 92.4347H13.453Z" fill="black"/>
<path d="M19.1517 92.4738L18.261 91.9328C17.7026 91.5917 17.305 91.2549 17.0682 90.9247C16.8314 90.5944 16.7141 90.2142 16.7141 89.7841C16.7141 89.1388 16.9378 88.6152 17.3854 88.2132C17.833 87.8113 18.4152 87.6093 19.13 87.6093C19.8144 87.6093 20.4423 87.8004 21.0115 88.185V89.5147C20.4206 88.9476 19.7861 88.663 19.1061 88.663C18.7237 88.663 18.4087 88.7521 18.1632 88.928C17.9177 89.104 17.7938 89.3321 17.7938 89.6081C17.7938 89.8536 17.8851 90.0839 18.0654 90.2968C18.2458 90.5097 18.5391 90.7357 18.941 90.9703L19.8361 91.5004C20.8355 92.0979 21.3352 92.8562 21.3352 93.7774C21.3352 94.4335 21.1158 94.968 20.6748 95.3764C20.2359 95.787 19.6623 95.9913 18.9606 95.9913C18.1523 95.9913 17.4158 95.7436 16.751 95.2461V93.7578C17.3832 94.5595 18.1176 94.9614 18.9497 94.9614C19.3169 94.9614 19.6232 94.8593 19.8665 94.6551C20.1099 94.4509 20.2337 94.1945 20.2337 93.886C20.2315 93.395 19.8709 92.9213 19.1517 92.4738Z" fill="black"/>
<path d="M25.2373 87.6701H26.0607L29.7325 95.9044H28.5332L27.4425 93.4776H23.9489L22.9256 95.9044H21.7198L25.2373 87.6701ZM26.9602 92.4347L25.6392 89.469L24.4139 92.4347H26.9602Z" fill="black"/>
<path d="M33.9778 95.8935V87.7179H36.7393C37.8538 87.7179 38.7337 87.8852 39.3834 88.2198C40.033 88.5544 40.5479 89.0454 40.9303 89.6928C41.3127 90.3424 41.5038 91.0485 41.5038 91.8133C41.5038 92.3608 41.3974 92.8844 41.1866 93.3841C40.9759 93.8838 40.6739 94.3227 40.2828 94.7029C39.8831 95.094 39.4203 95.3895 38.8923 95.5872C38.5838 95.7088 38.2992 95.7892 38.0428 95.8305C37.7843 95.8718 37.2933 95.8913 36.5655 95.8913H33.9778V95.8935ZM36.6176 88.7608H35.1511V94.8506H36.6524C37.239 94.8506 37.693 94.8115 38.0189 94.7312C38.3427 94.6508 38.6142 94.5487 38.8315 94.427C39.0488 94.3031 39.2465 94.1532 39.4268 93.9729C40.0047 93.3863 40.2937 92.6476 40.2937 91.7525C40.2937 90.8726 39.996 90.1556 39.4029 89.6016C39.1835 89.3952 38.9336 89.2235 38.649 89.091C38.3666 88.9585 38.0972 88.8694 37.843 88.8281C37.5888 88.7825 37.1803 88.7608 36.6176 88.7608Z" fill="black"/>
<path d="M42.9725 87.7179H47.6155V88.7608H44.1458V91.2571H47.5003V92.3065H44.1458V94.8506H47.7284V95.8935H42.9747V87.7179H42.9725Z" fill="black"/>
<path d="M52.3453 95.9044V87.7179H54.3962C55.224 87.7179 55.8823 87.9221 56.369 88.3327C56.8557 88.7434 57.099 89.2974 57.099 89.997C57.099 90.4728 56.9795 90.8856 56.7405 91.2332C56.5015 91.5808 56.1604 91.8416 55.715 92.0132C55.9779 92.1848 56.2321 92.4195 56.482 92.7171C56.7318 93.0148 57.0838 93.5319 57.5379 94.2706C57.8225 94.7355 58.0528 95.0853 58.2244 95.3199L58.6589 95.9066H57.2641L56.9078 95.3677C56.8969 95.3482 56.873 95.3156 56.8383 95.2678L56.6102 94.9441L56.2473 94.3466L55.8563 93.7078C55.6151 93.3711 55.3935 93.1038 55.1914 92.9061C54.9894 92.7063 54.8069 92.5629 54.6461 92.476C54.4831 92.3891 54.2116 92.3434 53.827 92.3434H53.5228V95.9066H52.3453V95.9044ZM53.8705 88.713H53.5185V91.2984H53.9639C54.557 91.2984 54.9655 91.2484 55.1871 91.1463C55.4087 91.0442 55.5803 90.8921 55.702 90.6857C55.8258 90.4815 55.8867 90.2468 55.8867 89.9861C55.8867 89.7276 55.8193 89.4951 55.6824 89.2865C55.5456 89.078 55.3522 88.9302 55.1045 88.8433C54.8568 88.7564 54.444 88.713 53.8705 88.713Z" fill="black"/>
<path d="M62.8608 87.6006C64.1253 87.6006 65.179 88.0004 66.022 88.8021C66.8628 89.6038 67.2843 90.6075 67.2843 91.8155C67.2843 93.0235 66.8606 94.0229 66.0111 94.8137C65.1616 95.6046 64.0905 96 62.7978 96C61.5637 96 60.5361 95.6046 59.7126 94.8137C58.8914 94.0229 58.4786 93.0322 58.4786 91.8394C58.4786 90.6162 58.8914 89.6038 59.7213 88.8042C60.5491 88.0004 61.5941 87.6006 62.8608 87.6006ZM62.9086 88.713C61.9722 88.713 61.2009 89.0063 60.5969 89.5929C59.9929 90.1795 59.6909 90.9269 59.6909 91.8372C59.6909 92.7193 59.9929 93.4537 60.5991 94.0403C61.2052 94.6269 61.9613 94.9202 62.8716 94.9202C63.7863 94.9202 64.5467 94.6204 65.1594 94.0229C65.7699 93.4254 66.0763 92.6802 66.0763 91.7894C66.0763 90.9225 65.7699 90.1925 65.1594 89.5994C64.5489 89.0106 63.7972 88.713 62.9086 88.713Z" fill="black"/>
<path d="M70.754 92.4738L69.8632 91.9328C69.3048 91.5917 68.9072 91.2549 68.6704 90.9247C68.4336 90.5944 68.3163 90.2142 68.3163 89.7841C68.3163 89.1388 68.5401 88.6152 68.9876 88.2132C69.4352 87.8113 70.0175 87.6093 70.7323 87.6093C71.4166 87.6093 72.0445 87.8004 72.6138 88.185V89.5147C72.0228 88.9476 71.3884 88.663 70.7084 88.663C70.326 88.663 70.0109 88.7521 69.7654 88.928C69.5199 89.104 69.3961 89.3321 69.3961 89.6081C69.3961 89.8536 69.4873 90.0839 69.6677 90.2968C69.8502 90.5097 70.1413 90.7357 70.5432 90.9703L71.4384 91.5004C72.4378 92.0979 72.9375 92.8562 72.9375 93.7774C72.9375 94.4335 72.718 94.968 72.277 95.3764C71.8359 95.787 71.2645 95.9913 70.5628 95.9913C69.7546 95.9913 69.018 95.7436 68.3532 95.2461V93.7578C68.9855 94.5595 69.7198 94.9614 70.5519 94.9614C70.9191 94.9614 71.2254 94.8593 71.4688 94.6551C71.7121 94.4509 71.836 94.1945 71.836 93.886C71.8338 93.395 71.4731 92.9213 70.754 92.4738Z" fill="black"/>
<path d="M76.8396 87.6701H77.663L81.3347 95.9044H80.1355L79.0426 93.4776H75.549L74.5257 95.9044H73.3221L76.8396 87.6701ZM78.5625 92.4347L77.2415 89.469L76.0161 92.4347H78.5625Z" fill="black"/>
<path d="M82.2342 87.7179H83.4074V94.8376H87.0944V95.9044H82.2342V87.7179Z" fill="black"/>
<path d="M88.1307 87.7179H89.304V95.9044H88.1307V87.7179ZM90.3599 85.3563L89.0345 87.1139H88.3784L89.1692 85.3563H90.3599Z" fill="black"/>
<path d="M93.7361 87.6701H94.5596L98.2313 95.9044H97.032L95.9414 93.4776H92.4478L91.4244 95.9044H90.2186L93.7361 87.6701ZM95.459 92.4347L94.1381 89.469L92.9127 92.4347H95.459Z" fill="black"/>
<path d="M88.5174 42.3968C88.5174 30.0953 81.691 19.3994 71.6208 13.8744C65.7417 5.4859 56.004 0 44.9822 0C27.021 0 12.4687 14.5588 12.4687 32.5178C12.4687 32.9111 12.4774 33.3043 12.4904 33.6975C10.5633 37.8538 9.48352 42.4815 9.48352 47.3656C9.48352 65.3224 24.0423 79.8747 42.0013 79.8747C48.478 79.8747 54.5135 77.9802 59.5823 74.7169C75.8575 72.931 88.5174 59.1456 88.5174 42.3968ZM73.7261 32.5178C73.724 34.4297 73.5306 36.2982 73.1721 38.1058C69.6199 26.1259 59.3563 17.0356 46.7377 15.1911C49.6447 14.2003 52.7624 13.6593 56.004 13.655C60.6925 13.6637 65.1116 14.7869 69.0159 16.7792C71.9858 21.2983 73.7153 26.7017 73.7261 32.5178ZM58.2548 71.0516C57.5118 71.1103 56.7644 71.1385 56.0061 71.1429C48.7908 71.1277 42.2012 68.4662 37.1585 64.0775C39.6657 64.6967 42.2859 65.0269 44.9844 65.0269C55.1392 65.0269 64.2056 60.3688 70.1674 53.0818C68.6552 60.5144 64.2882 66.9019 58.2548 71.0516ZM44.9822 61.2596C40.2958 61.2509 35.8745 60.1233 31.9703 58.1353C29.0046 53.6163 27.2709 48.2086 27.2622 42.3968C27.2796 32.5591 32.2201 23.8881 39.7505 18.7107C40.4935 18.6499 41.2431 18.6195 42.0013 18.6195C44.4608 18.6238 46.8485 18.9367 49.1297 19.5211C39.0379 20.6183 32.9393 27.8271 32.9393 37.4084C32.9393 42.8552 34.8077 47.5177 37.8103 50.4225C41.2322 53.688 45.5862 55.0328 50.8744 55.0328C55.5912 55.0328 59.6366 53.8965 61.655 53.1187V36.3221H50.1465V39.9504H57.1967V50.3725C56.1582 50.8874 54.1398 51.3024 51.1851 51.3024C42.9942 51.3024 37.706 46.0685 37.706 37.2042C37.706 28.4463 43.2549 23.1559 51.7521 23.1559C55.2783 23.1559 57.6095 23.7816 59.4758 24.6594L59.4997 24.5855C65.8351 29.4631 70.0804 36.9196 70.6671 45.3928C65.9459 54.7895 56.2256 61.24 44.9822 61.2596ZM25.4763 53.6032C20.2576 48.7735 16.8335 42.0339 16.3078 34.4884C19.5667 28.0074 25.1982 22.93 32.0702 20.3923C26.7451 26.1824 23.4905 33.9083 23.4905 42.3968C23.4927 46.3336 24.1944 50.1096 25.4763 53.6032ZM44.9822 3.76952C52.1975 3.78255 58.7871 6.44403 63.8298 10.8328C61.3247 10.2157 58.7045 9.88114 56.0061 9.88114C49.5252 9.88114 43.4896 11.7778 38.4208 15.0433C29.7281 15.9971 22.0674 20.3728 16.8162 26.7994C19.4798 13.668 31.0643 3.79559 44.9822 3.76952ZM13.2552 47.3656C13.2574 45.4515 13.4486 43.583 13.8071 41.7754C16.2643 50.0597 21.9284 56.9621 29.3653 61.038C34.3841 68.199 42.2208 73.2438 51.2654 74.567C48.3585 75.5577 45.2429 76.0987 42.0013 76.1008C26.1259 76.0769 13.2835 63.2367 13.2552 47.3656ZM65.9307 69.3657C71.2558 63.5778 74.5104 55.8519 74.5104 47.3656C74.5104 46.968 74.4996 46.5769 74.4865 46.1858C76.4137 42.0296 77.4956 37.3997 77.4956 32.5178C77.4956 28.5788 76.7939 24.8028 75.512 21.3114C81.1804 26.5583 84.7327 34.056 84.7479 42.3989C84.7283 54.7808 76.9047 65.3181 65.9307 69.3657Z" fill="black"/>
</svg>
