<svg width="210" height="40" viewBox="0 0 210 40" fill="none" xmlns="http://www.w3.org/2000/svg">
<g clip-path="url(#clip0_32_878)">
<path d="M45.4458 25.4496H57.434L51.4908 8.75226H51.385L45.4458 25.4496ZM62.8405 39.4398L59.816 31.6592H43.0638L40.0941 39.4398H33.1245L45.9825 6.75423L37.4457 5.67294V0.54071H65.916V5.67294L57.434 6.75423L70.4018 39.4398H62.8405Z" fill="#1D1D1B"/>
<mask id="mask0_32_878" style="mask-type:luminance" maskUnits="userSpaceOnUse" x="0" y="0" width="210" height="40">
<path d="M209.427 6.10352e-05H0.258514V39.9805H209.427V6.10352e-05Z" fill="white"/>
</mask>
<g mask="url(#mask0_32_878)">
<path d="M7.28299 6.75417V33.2262H13.6572C20.4114 33.2262 26.1391 29.1205 26.1391 19.9922C26.1391 11.3457 20.4662 6.75417 13.6572 6.75417H7.28299ZM33.1636 19.9922C33.1636 32.3643 24.4623 39.4398 13.6572 39.4398H0.258484V0.540649H13.6572C24.4623 0.540649 33.1636 7.61998 33.1636 19.9922Z" fill="#1D1D1B"/>
<path d="M87.726 18.3701H105.556V32.1997C102.151 37.0616 96.4782 39.9999 89.6183 39.9999C77.9473 39.9999 69.6378 32.2741 69.6378 20.0195C69.6378 7.76482 77.7397 0.0390625 89.2265 0.0390625C96.4665 0.0390625 102.625 3.60419 105.544 9.9274L99.1188 12.5366C97.3911 8.69724 93.8769 6.2134 89.2304 6.2134C81.0032 6.2134 76.6427 12.1566 76.6427 19.992C76.6427 27.8275 81.2343 33.7668 89.6104 33.7668C93.2853 33.7668 96.5253 32.5249 98.5233 30.4171V24.5836H87.726V18.3701Z" fill="#1D1D1B"/>
<path d="M166.97 33.6687C166.405 33.6795 165.856 33.8568 165.391 34.1783C164.926 34.4998 164.567 34.9513 164.358 35.4762C164.148 36.0011 164.098 36.5761 164.214 37.1292C164.33 37.6823 164.607 38.1889 165.01 38.5855C165.412 38.9821 165.923 39.2511 166.477 39.3589C167.032 39.4666 167.606 39.4083 168.128 39.1913C168.65 38.9742 169.096 38.608 169.411 38.1385C169.725 37.6691 169.894 37.1173 169.897 36.5522C169.906 36.1674 169.836 35.7849 169.691 35.4283C169.547 35.0716 169.331 34.7482 169.056 34.4781C168.782 34.208 168.456 33.9969 168.097 33.8577C167.738 33.7185 167.355 33.6542 166.97 33.6687ZM166.97 34.5972C167.225 34.5924 167.478 34.6404 167.713 34.7382C167.949 34.8361 168.161 34.9816 168.338 35.1656C168.514 35.3497 168.65 35.5682 168.738 35.8075C168.825 36.0468 168.863 36.3017 168.847 36.5561C168.847 37.0538 168.649 37.5311 168.297 37.883C167.945 38.235 167.468 38.4327 166.97 38.4327C166.472 38.4327 165.995 38.235 165.643 37.883C165.291 37.5311 165.094 37.0538 165.094 36.5561C165.078 36.3018 165.116 36.0472 165.204 35.8082C165.292 35.5691 165.428 35.3508 165.604 35.1669C165.78 34.983 165.993 34.8375 166.228 34.7394C166.463 34.6414 166.716 34.593 166.97 34.5972ZM161.258 32.8969C162.089 32.8969 162.32 32.2466 162.32 31.6276H161.658C161.658 31.9802 161.536 32.18 161.266 32.18C160.847 32.18 160.482 31.3964 159.777 31.3964C159.072 31.3964 158.684 31.9841 158.684 32.6697H159.346C159.346 32.368 159.432 32.1173 159.738 32.1173C160.181 32.1173 160.424 32.9008 161.274 32.9008M162.943 35.8822C162.943 34.3817 162.104 33.6726 160.984 33.6726C160.596 33.6576 160.213 33.7522 159.876 33.9456C159.54 34.1389 159.266 34.4232 159.084 34.7657H159.06L158.951 33.7862H158.069V39.3063H159.115V36.1721C159.127 35.7502 159.304 35.3499 159.608 35.057C159.912 34.764 160.319 34.6018 160.741 34.6051C161.525 34.6051 161.877 35.1574 161.877 35.8979V39.3102H162.927L162.943 35.8822ZM152.4 36.082C152.444 35.6516 152.65 35.254 152.976 34.9691C153.301 34.6842 153.723 34.5331 154.155 34.5463C154.365 34.5328 154.575 34.5626 154.772 34.6339C154.969 34.7051 155.15 34.8162 155.302 34.9603C155.455 35.1044 155.576 35.2783 155.659 35.4713C155.741 35.6643 155.783 35.8722 155.781 36.082H152.4ZM155.793 37.5394C155.655 37.8539 155.424 38.1187 155.131 38.2986C154.839 38.4785 154.498 38.5649 154.155 38.5463C153.7 38.5557 153.259 38.3841 152.93 38.069C152.601 37.7539 152.41 37.3211 152.4 36.8656H156.831C156.856 36.7009 156.866 36.5345 156.862 36.368C156.886 36.0105 156.833 35.6521 156.707 35.3167C156.581 34.9812 156.386 34.6764 156.133 34.4226C155.88 34.1687 155.576 33.9715 155.241 33.8442C154.906 33.717 154.548 33.6625 154.191 33.6844C153.429 33.6844 152.698 33.9869 152.16 34.5255C151.621 35.064 151.319 35.7945 151.319 36.5561C151.319 37.3177 151.621 38.0481 152.16 38.5867C152.698 39.1252 153.429 39.4278 154.191 39.4278C154.721 39.4468 155.245 39.3147 155.703 39.0469C156.161 38.7792 156.533 38.3868 156.776 37.9155L155.793 37.5394ZM145.83 37.9038C146.061 38.6873 146.809 39.416 148.224 39.416C149.54 39.416 150.402 38.8088 150.402 37.704C150.402 36.5992 149.528 36.2583 148.588 36.082C147.805 35.9253 147.021 35.8626 147.021 35.2632C147.021 34.7892 147.495 34.5463 148.071 34.5463C148.374 34.5258 148.673 34.6258 148.903 34.8247C149.132 35.0235 149.274 35.3051 149.297 35.608L150.257 35.2632C150.081 34.4797 149.438 33.6726 148.071 33.6726C146.931 33.6726 145.971 34.2133 145.971 35.275C145.971 36.2583 146.798 36.6658 147.84 36.8656C148.69 37.0419 149.34 37.1202 149.34 37.751C149.34 38.225 148.949 38.5345 148.236 38.5345C147.912 38.5651 147.587 38.4811 147.319 38.2971C147.05 38.1131 146.855 37.8409 146.766 37.5277L145.83 37.9038ZM140.471 36.082C140.516 35.6513 140.722 35.2536 141.049 34.9688C141.375 34.684 141.797 34.533 142.23 34.5463C142.439 34.5334 142.648 34.5636 142.845 34.6351C143.042 34.7066 143.222 34.8178 143.374 34.9618C143.526 35.1058 143.647 35.2796 143.729 35.4723C143.811 35.665 143.853 35.8726 143.852 36.082H140.471ZM143.863 37.5394C143.726 37.8536 143.496 38.1183 143.204 38.2982C142.912 38.4781 142.572 38.5647 142.23 38.5463C142.002 38.5547 141.775 38.5176 141.562 38.4373C141.349 38.3571 141.154 38.2351 140.988 38.0787C140.823 37.9223 140.69 37.7344 140.598 37.5261C140.505 37.3179 140.456 37.0933 140.451 36.8656H144.878C144.904 36.7011 144.916 36.5346 144.913 36.368C144.913 34.6011 143.699 33.6844 142.237 33.6844C141.732 33.6943 141.238 33.8374 140.806 34.0992C140.374 34.3611 140.018 34.7323 139.776 35.1755C139.533 35.6187 139.411 36.1181 139.423 36.6234C139.435 37.1286 139.58 37.6217 139.844 38.053C140.107 38.4842 140.48 38.8382 140.924 39.0793C141.368 39.3204 141.868 39.4401 142.373 39.4261C142.878 39.4122 143.371 39.2652 143.801 38.9999C144.231 38.7347 144.584 38.3606 144.823 37.9155L143.863 37.5394ZM134.52 31.3533H131.867V39.3063H134.52C136.682 39.3063 138.375 37.6961 138.375 35.3298C138.375 32.9635 136.682 31.3533 134.52 31.3533ZM134.52 32.2818C136.087 32.2818 137.325 33.5198 137.325 35.3298C137.325 37.1398 136.087 38.3778 134.52 38.3778H132.917V32.2779L134.52 32.2818ZM124.153 36.082C124.198 35.6516 124.403 35.254 124.729 34.9691C125.054 34.6842 125.476 34.5331 125.908 34.5463C126.118 34.5328 126.328 34.5626 126.525 34.6339C126.722 34.7051 126.903 34.8162 127.055 34.9603C127.208 35.1044 127.329 35.2783 127.412 35.4713C127.494 35.6643 127.536 35.8722 127.534 36.082H124.153ZM127.542 37.5394C127.405 37.8539 127.175 38.119 126.883 38.2989C126.591 38.4789 126.251 38.5652 125.908 38.5463C125.68 38.5547 125.452 38.5172 125.238 38.4362C125.024 38.3552 124.828 38.2323 124.663 38.0746C124.497 37.9169 124.364 37.7277 124.273 37.518C124.181 37.3084 124.133 37.0826 124.13 36.8538H128.561C128.585 36.6892 128.596 36.5227 128.592 36.3563C128.615 35.9988 128.563 35.6404 128.437 35.3049C128.311 34.9695 128.115 34.6647 127.862 34.4108C127.61 34.1569 127.306 33.9598 126.971 33.8325C126.636 33.7052 126.278 33.6507 125.92 33.6726C125.158 33.6726 124.428 33.9752 123.889 34.5137C123.351 35.0523 123.048 35.7827 123.048 36.5443C123.048 37.3059 123.351 38.0364 123.889 38.5749C124.428 39.1135 125.158 39.416 125.92 39.416C126.45 39.435 126.975 39.3029 127.432 39.0352C127.89 38.7674 128.262 38.375 128.506 37.9038L127.542 37.5394ZM118.974 34.6011C119.226 34.5988 119.476 34.6488 119.708 34.7481C119.94 34.8474 120.149 34.9937 120.321 35.1779C120.493 35.362 120.625 35.58 120.709 35.8179C120.793 36.0558 120.826 36.3085 120.807 36.56C120.807 37.7079 120.067 38.4954 118.974 38.4954C117.799 38.4954 117.16 37.6335 117.16 36.56C117.16 35.4865 117.814 34.6011 118.974 34.6011ZM121.857 31.3533H120.807V34.7226H120.784C120.567 34.3896 120.269 34.1181 119.917 33.9342C119.565 33.7503 119.171 33.6602 118.774 33.6726C117.262 33.6726 116.11 34.8127 116.11 36.5561C116.11 38.2995 117.285 39.416 118.774 39.416C119.186 39.4418 119.596 39.3533 119.96 39.1604C120.325 38.9675 120.629 38.6777 120.839 38.323H120.862L120.972 39.3063H121.842L121.857 31.3533Z" fill="#1D1D1B"/>
<path d="M205.736 25.0773C205.736 24.3251 206.422 24.0822 207.593 24.0822C207.858 24.0993 208.123 24.0688 208.377 23.9921V24.5131C208.377 25.473 207.593 25.8726 206.767 25.8726C206.159 25.8726 205.736 25.661 205.736 25.089M208.545 26.6561H209.427V23.3417C209.427 21.5748 208.31 21.0224 207.096 21.0224C205.803 21.0224 204.933 21.7433 204.69 22.613L205.662 22.9578C205.733 22.638 205.92 22.3558 206.187 22.1656C206.454 21.9754 206.782 21.8906 207.107 21.9274C207.993 21.9274 208.377 22.3701 208.377 23.0322C208.377 23.2007 208.279 23.3221 208.012 23.3221C206.136 23.3221 204.69 23.6199 204.69 25.1204C204.69 26.3153 205.607 26.7658 206.622 26.7658C206.965 26.7887 207.309 26.725 207.622 26.5806C207.935 26.4362 208.207 26.2156 208.412 25.9392L208.545 26.6561ZM200.588 25.8177C199.44 25.8177 198.786 24.9872 198.786 23.8589C198.786 22.7306 199.44 21.9 200.588 21.9C201.064 21.9566 201.503 22.1859 201.822 22.5444C202.14 22.9029 202.316 23.3657 202.316 23.8452C202.316 24.3246 202.14 24.7874 201.822 25.1459C201.503 25.5044 201.064 25.7337 200.588 25.7903M198.347 28.4622C199.024 28.9393 199.839 29.1803 200.667 29.1478C202.014 29.1478 203.484 28.6032 203.484 26.4603V21.1086H202.598L202.488 22.092H202.465C202.252 21.7399 201.947 21.4523 201.584 21.2598C201.22 21.0673 200.811 20.9771 200.4 20.9989C198.908 20.9989 197.736 22.1155 197.736 23.8824C197.736 25.6493 198.888 26.7423 200.4 26.7423C200.796 26.7571 201.19 26.6693 201.542 26.4874C201.894 26.3055 202.193 26.0357 202.41 25.7041H202.434V26.5229C202.434 27.8471 201.572 28.2781 200.667 28.2781C200.063 28.2818 199.474 28.0924 198.986 27.7374L198.347 28.4622ZM192.381 23.3692C192.425 22.9388 192.631 22.5411 192.956 22.2562C193.282 21.9713 193.703 21.8202 194.136 21.8334C194.345 21.82 194.555 21.8498 194.752 21.921C194.95 21.9922 195.13 22.1034 195.283 22.2474C195.436 22.3915 195.557 22.5655 195.639 22.7585C195.721 22.9515 195.763 23.1593 195.762 23.3692H192.381ZM195.773 24.8266C195.636 25.1414 195.405 25.4065 195.112 25.5865C194.82 25.7665 194.479 25.8526 194.136 25.8334C193.907 25.8412 193.68 25.8035 193.466 25.7223C193.252 25.6411 193.057 25.5181 192.891 25.3605C192.726 25.2029 192.593 25.0139 192.501 24.8045C192.41 24.5951 192.361 24.3695 192.357 24.141H196.788C196.814 23.9764 196.826 23.81 196.823 23.6434C196.823 21.8765 195.605 20.9598 194.148 20.9598C193.386 20.9598 192.656 21.2623 192.117 21.8009C191.578 22.3394 191.276 23.0698 191.276 23.8315C191.276 24.5931 191.578 25.3235 192.117 25.862C192.656 26.4006 193.386 26.7031 194.148 26.7031C194.678 26.7221 195.202 26.5901 195.66 26.3223C196.118 26.0546 196.49 25.6622 196.733 25.1909L195.773 24.8266ZM190.085 18.6405H189.035V26.5935H190.085V18.6405ZM183.93 25.0381C183.93 24.2859 184.616 24.043 185.787 24.043C186.052 24.0601 186.317 24.0296 186.571 23.9529V24.474C186.571 25.4338 185.787 25.8334 184.96 25.8334C184.353 25.8334 183.93 25.6219 183.93 25.0499M186.739 26.617H187.621V23.3026C187.621 21.5357 186.504 20.9833 185.27 20.9833C183.977 20.9833 183.107 21.7041 182.864 22.5739L183.836 22.9186C183.907 22.5988 184.095 22.3166 184.361 22.1264C184.628 21.9362 184.956 21.8514 185.282 21.8883C186.167 21.8883 186.551 22.331 186.551 22.9931C186.551 23.1615 186.453 23.283 186.187 23.283C184.31 23.283 182.864 23.5807 182.864 25.0812C182.864 26.2761 183.781 26.7267 184.796 26.7267C185.14 26.7491 185.483 26.6853 185.796 26.5409C186.109 26.3965 186.381 26.1762 186.586 25.9H186.606L186.739 26.617ZM178.155 23.3143H180.718V24.7208C180.465 25.0702 180.13 25.352 179.743 25.5413C179.355 25.7306 178.927 25.8215 178.496 25.806C176.718 25.806 175.558 24.4896 175.558 22.6444C175.558 20.7991 176.651 19.4867 178.453 19.4867C178.944 19.471 179.428 19.6025 179.844 19.8643C180.259 20.1262 180.587 20.5063 180.784 20.9558L181.744 20.5641C181.455 19.9416 180.989 19.4185 180.403 19.0608C179.817 18.7032 179.139 18.5269 178.453 18.5543C176.189 18.5543 174.512 20.1684 174.512 22.6405C174.512 25.1126 176.165 26.7267 178.496 26.7267C179.148 26.7472 179.793 26.5958 180.367 26.2877C180.941 25.9796 181.424 25.5256 181.768 24.9715V22.3858H178.155V23.3143ZM171.433 23.1929C171.433 21.6924 170.594 20.9833 169.474 20.9833C169.086 20.9682 168.702 21.0628 168.366 21.2562C168.03 21.4495 167.755 21.7338 167.574 22.0763L167.46 21.093H166.578V26.617H167.628V23.4828C167.641 23.0615 167.817 22.6618 168.12 22.369C168.423 22.0761 168.829 21.9135 169.25 21.9157C170.034 21.9157 170.39 22.4681 170.39 23.2085V26.6209H171.436L171.433 23.1929ZM161.572 20.2115H162.422L163.636 18.664H162.461L161.572 20.2115ZM162.433 20.995C161.868 21.0058 161.319 21.1831 160.854 21.5046C160.39 21.8261 160.03 22.2776 159.821 22.8025C159.612 23.3274 159.562 23.9024 159.678 24.4555C159.794 25.0086 160.07 25.5152 160.473 25.9118C160.875 26.3084 161.386 26.5774 161.941 26.6852C162.495 26.7929 163.07 26.7346 163.591 26.5176C164.113 26.3005 164.559 25.9343 164.874 25.4648C165.188 24.9954 165.358 24.4436 165.36 23.8785C165.369 23.4937 165.299 23.1112 165.154 22.7546C165.01 22.3979 164.794 22.0745 164.52 21.8044C164.246 21.5343 163.919 21.3232 163.56 21.184C163.201 21.0448 162.818 20.9805 162.433 20.995ZM162.433 21.9235C162.688 21.9193 162.941 21.9677 163.176 22.0657C163.411 22.1638 163.623 22.3093 163.799 22.4932C163.976 22.6771 164.112 22.8954 164.2 23.1345C164.288 23.3735 164.325 23.6281 164.31 23.8824C164.322 24.1363 164.282 24.3899 164.192 24.6279C164.103 24.866 163.967 25.0834 163.791 25.2672C163.616 25.451 163.405 25.5973 163.171 25.6972C162.937 25.7972 162.686 25.8487 162.431 25.8487C162.177 25.8487 161.926 25.7972 161.692 25.6972C161.458 25.5973 161.247 25.451 161.072 25.2672C160.896 25.0834 160.76 24.866 160.67 24.6279C160.581 24.3899 160.541 24.1363 160.553 23.8824C160.538 23.6278 160.575 23.3729 160.663 23.1336C160.752 22.8942 160.888 22.6757 161.065 22.4918C161.241 22.3078 161.454 22.1623 161.69 22.0645C161.925 21.9668 162.178 21.9187 162.433 21.9235ZM157.011 19.6277C157.01 19.7764 157.053 19.9221 157.134 20.0464C157.216 20.1706 157.333 20.2677 157.47 20.3254C157.607 20.383 157.758 20.3984 157.904 20.3698C158.049 20.3412 158.184 20.2698 158.289 20.1647C158.394 20.0595 158.465 19.9255 158.494 19.7796C158.522 19.6337 158.507 19.4826 158.449 19.3456C158.392 19.2085 158.295 19.0917 158.17 19.0101C158.046 18.9285 157.9 18.8857 157.752 18.8873C157.556 18.8883 157.368 18.9667 157.229 19.1053C157.091 19.2439 157.012 19.4317 157.011 19.6277ZM158.281 21.1165H157.235V26.6405H158.277L158.281 21.1165ZM155.146 24.8853C155.002 25.1803 154.775 25.4265 154.492 25.5936C154.209 25.7607 153.884 25.8414 153.556 25.8256C152.51 25.8256 151.758 25.0616 151.758 23.8667C151.758 22.6718 152.463 21.9079 153.548 21.9079C153.876 21.8959 154.2 21.9874 154.474 22.1695C154.747 22.3516 154.956 22.615 155.072 22.9225L156.044 22.5582C155.848 22.0799 155.51 21.6732 155.075 21.393C154.641 21.1128 154.131 20.9725 153.615 20.9911C153.237 20.9896 152.864 21.0623 152.515 21.2052C152.166 21.3481 151.848 21.5583 151.581 21.8239C151.313 22.0895 151.1 22.4052 150.954 22.753C150.808 23.1008 150.733 23.4739 150.731 23.851C150.73 24.2282 150.802 24.6019 150.945 24.9509C151.088 25.2999 151.298 25.6173 151.564 25.8851C151.83 26.1528 152.145 26.3657 152.493 26.5114C152.841 26.6571 153.214 26.733 153.591 26.7345C154.116 26.7491 154.634 26.6148 155.085 26.3471C155.536 26.0795 155.903 25.6895 156.142 25.2222L155.146 24.8853ZM145.904 25.0851C145.904 24.3329 146.59 24.09 147.758 24.09C148.022 24.1066 148.287 24.076 148.541 23.9999V24.521C148.541 25.4808 147.758 25.8804 146.927 25.8804C146.32 25.8804 145.901 25.6689 145.901 25.0969M148.706 26.664H149.587V23.3496C149.587 21.5827 148.475 21.0303 147.237 21.0303C145.948 21.0303 145.074 21.7511 144.831 22.6209L145.803 22.9656C145.874 22.6458 146.061 22.3636 146.328 22.1734C146.595 21.9832 146.923 21.8984 147.248 21.9353C148.134 21.9353 148.522 22.378 148.522 23.0401C148.522 23.2085 148.42 23.33 148.157 23.33C146.277 23.33 144.831 23.6277 144.831 25.1282C144.831 26.3231 145.748 26.7737 146.762 26.7737C147.106 26.7969 147.45 26.7333 147.763 26.5889C148.076 26.4445 148.348 26.2238 148.553 25.947H148.576L148.706 26.664ZM142.39 19.6277C142.39 19.7755 142.433 19.9201 142.514 20.0432C142.596 20.1662 142.712 20.2622 142.849 20.319C142.985 20.3757 143.135 20.3905 143.28 20.3616C143.425 20.3327 143.558 20.2613 143.662 20.1566C143.767 20.0518 143.837 19.9185 143.865 19.7735C143.894 19.6284 143.878 19.4783 143.82 19.3422C143.763 19.2061 143.666 19.0902 143.543 19.0092C143.419 18.9282 143.275 18.8857 143.127 18.8873C142.931 18.8883 142.744 18.9668 142.606 19.1055C142.468 19.2443 142.39 19.432 142.39 19.6277ZM143.66 21.1165H142.606V26.6405H143.656L143.66 21.1165ZM140.525 24.8853C140.381 25.18 140.153 25.4259 139.871 25.593C139.588 25.76 139.263 25.8409 138.935 25.8256C137.885 25.8256 137.133 25.0616 137.133 23.8667C137.133 22.6718 137.842 21.9079 138.923 21.9079C139.251 21.8959 139.575 21.9874 139.849 22.1695C140.122 22.3516 140.331 22.615 140.447 22.9225L141.419 22.5582C141.223 22.0796 140.885 21.6726 140.451 21.3923C140.016 21.112 139.506 20.972 138.99 20.9911C138.482 20.9913 137.983 21.1262 137.545 21.3819C137.106 21.6376 136.743 22.0051 136.493 22.4468C136.242 22.8885 136.114 23.3887 136.119 23.8964C136.125 24.4041 136.266 24.9012 136.527 25.3369C136.787 25.7727 137.159 26.1315 137.603 26.3769C138.048 26.6222 138.549 26.7454 139.057 26.7337C139.565 26.7221 140.06 26.576 140.493 26.3105C140.926 26.045 141.28 25.6695 141.521 25.2222L140.525 24.8853ZM132.239 21.0068C131.674 21.0176 131.125 21.1948 130.66 21.5164C130.196 21.8379 129.836 22.2894 129.627 22.8143C129.418 23.3392 129.368 23.9142 129.484 24.4673C129.6 25.0204 129.876 25.5269 130.279 25.9235C130.681 26.3202 131.192 26.5892 131.747 26.6969C132.301 26.8047 132.876 26.7464 133.397 26.5293C133.919 26.3122 134.365 25.946 134.68 25.4766C134.994 25.0072 135.164 24.4553 135.166 23.8902C135.175 23.5055 135.105 23.123 134.96 22.7663C134.816 22.4096 134.6 22.0863 134.326 21.8162C134.052 21.5461 133.725 21.335 133.366 21.1958C133.007 21.0566 132.624 20.9922 132.239 21.0068ZM132.239 21.9353C132.494 21.9305 132.748 21.9785 132.983 22.0763C133.219 22.1741 133.431 22.3195 133.608 22.5035C133.785 22.6875 133.921 22.906 134.009 23.1453C134.097 23.3846 134.135 23.6396 134.12 23.8941C134.132 24.1481 134.092 24.4017 134.002 24.6397C133.913 24.8777 133.777 25.0952 133.601 25.279C133.425 25.4628 133.214 25.609 132.981 25.709C132.747 25.8089 132.496 25.8605 132.241 25.8605C131.987 25.8605 131.736 25.8089 131.502 25.709C131.268 25.609 131.057 25.4628 130.882 25.279C130.706 25.0952 130.57 24.8777 130.48 24.6397C130.391 24.4017 130.351 24.1481 130.363 23.8941C130.348 23.6399 130.385 23.3853 130.473 23.1462C130.561 22.9072 130.697 22.6889 130.873 22.505C131.05 22.3211 131.262 22.1755 131.497 22.0775C131.732 21.9795 131.985 21.9311 132.239 21.9353ZM123.824 25.2379C124.055 26.0215 124.807 26.7502 126.222 26.7502C127.534 26.7502 128.396 26.1429 128.396 25.0381C128.396 23.9333 127.522 23.5925 126.586 23.4162C125.803 23.2595 125.019 23.1929 125.019 22.5974C125.019 22.1233 125.497 21.8804 126.069 21.8804C126.372 21.8599 126.671 21.96 126.901 22.1588C127.13 22.3577 127.272 22.6392 127.295 22.9421L128.255 22.5974C128.079 21.7903 127.44 21.0068 126.069 21.0068C124.933 21.0068 123.969 21.5474 123.969 22.6091C123.969 23.5925 124.8 23.9999 125.838 24.1997C126.688 24.376 127.338 24.4544 127.338 25.0851C127.338 25.5592 126.947 25.8687 126.233 25.8687C125.91 25.8985 125.586 25.8141 125.317 25.6303C125.049 25.4464 124.853 25.1746 124.764 24.8618L123.824 25.2379ZM119.428 19.8589H119.491L121.023 23.902H117.924L119.428 19.8589ZM123.193 26.6405L120.036 18.6875H118.919L115.785 26.6405H116.823L117.532 24.8305H121.332L122.061 26.6405H123.193Z" fill="#1D1D1B"/>
</g>
</g>
<defs>
<clipPath id="clip0_32_878">
<rect width="209.599" height="40" fill="white"/>
</clipPath>
</defs>
</svg>
